<?xml version="1.1" encoding="UTF-8"?>
<svg width="100%" height="300" xmlns="http://www.w3.org/2000/svg">
  <defs>
    <style>
      .cls-1 {
        fill: #f6c090;
      }

      .cls-1, .cls-2, .cls-3, .cls-4, .cls-5, .cls-6, .cls-7, .cls-8, .cls-9, .cls-10, .cls-11, .cls-12, .cls-13, .cls-14 {
        stroke-width: 0px;
      }

      .cls-15 {
        stroke: #005528;
        stroke-width: 9px;
      }

      .cls-15, .cls-16, .cls-17, .cls-18, .cls-19 {
        stroke-miterlimit: 10;
      }

      .cls-15, .cls-17, .cls-18, .cls-19 {
        fill: none;
      }

      .cls-16 {
        fill: #000e6a;
        font-family: Montserrat-Bold, Montserrat;
        font-size: 60px;
        font-weight: 700;
      }

      .cls-16, .cls-19 {
        stroke: #000;
      }

      .cls-2 {
        fill: #dffff8;
      }

      .cls-3 {
        fill: #034261;
      }

      .cls-17 {
        stroke: #5576ff;
      }

      .cls-17, .cls-18, .cls-19 {
        stroke-width: 10px;
      }

      .cls-18 {
        stroke: #000eaa;
      }

      .cls-4 {
        fill: #005528;
      }

      .cls-5 {
        fill: #97d1ff;
      }

      .cls-6 {
        fill: #940400;
      }

      .cls-7 {
        fill: #c9eaff;
      }

      .cls-8 {
        fill: #fdfdfd;
      }

      .cls-20 {
        letter-spacing: .03em;
      }

      .cls-9 {
        fill: #ffee94;
      }

      .cls-21 {
        letter-spacing: 0em;
      }

      .cls-10 {
        fill: #f9ffe9;
      }

      .cls-11 {
        fill: #01778b;
      }

      .cls-12 {
        fill: #fff;
      }

      .cls-13 {
        fill: #ff7b55;
      }

      .cls-22 {
        letter-spacing: 0em;
      }

      .cls-14 {
        fill: #e92000;
      }
    </style>
  </defs>
  <rect class="cls-7" y="0" width="1920" height="300"/>
  <path class="cls-2" d="M441.9,67.23c2.5,1.82,4.69,4.08,6.89,6.23.72.7,1.33,1.66,2.3,2.62,3.61,4.82,4.52,11.19,5.08,11.48.34.18,6.56.35,7.71.66,4.54,2.94,8.51,3.54,13.12,9.35,4.91,6.19,4.85,11.61,5.41,11.97.19.12,3.65.37,4.43.66,2.7.99,6.2,2.58,8.53,4.26,4.27,3.1,9.34,10.36,10.82,15.41,5.77,19.62-8.96,38.51-29.19,37.72h-130.03c-1.46-.33-2.96-.69-4.43-.98-2.92-.59-5.17-1.4-7.87-2.62,1.8-.06,9.08,3.42,9.18,1.8-22.54-9.36-28.48-33.64-9.67-50.67,1-.91,5-2.91,5.41-3.77.58-1.23-.05-2.84.33-3.94,5.43-15.88,22.25-23.63,37.55-15.91,5.57-20.3,26.61-34.44,47.23-26.24,2.85,1.13,5.56,3.56,5.9,3.61,1.28.17,5.53-3.91,11.31-1.64Z"/>
  <path class="cls-10" d="M294.9,88.65c2.5,1.82,4.69,4.08,6.89,6.23.72.7,1.33,1.66,2.3,2.62,3.61,4.82,4.52,11.19,5.08,11.48.34.18,6.56.35,7.71.66,4.54,2.94,8.51,3.54,13.12,9.35,4.91,6.19,4.85,11.61,5.41,11.97.19.12,3.65.37,4.43.66,2.7.99,6.2,2.58,8.53,4.26,4.27,3.1,9.34,10.36,10.82,15.41,5.77,19.62-8.96,38.51-29.19,37.72h-130.03c-1.46-.33-2.96-.69-4.43-.98-2.92-.59-5.17-1.4-7.87-2.62,1.8-.06,9.08,3.42,9.18,1.8-22.54-9.36-28.48-33.64-9.67-50.67,1-.91,5-2.91,5.41-3.77.58-1.23-.05-2.84.33-3.94,5.43-15.88,22.25-23.63,37.55-15.91,5.57-20.3,26.61-34.44,47.23-26.24,2.85,1.13,5.56,3.56,5.9,3.61,1.28.17,5.53-3.91,11.31-1.64Z"/>
  <path class="cls-12" d="M601.9,47.65c2.5,1.82,4.69,4.08,6.89,6.23.72.7,1.33,1.66,2.3,2.62,3.61,4.82,4.52,11.19,5.08,11.48.34.18,6.56.35,7.71.66,4.54,2.94,8.51,3.54,13.12,9.35,4.91,6.19,4.85,11.61,5.41,11.97.19.12,3.65.37,4.43.66,2.7.99,6.2,2.58,8.53,4.26,4.27,3.1,9.34,10.36,10.82,15.41,5.77,19.62-8.96,38.51-29.19,37.72h-130.03c-1.46-.33-2.96-.69-4.43-.98-2.92-.59-5.17-1.4-7.87-2.62,1.8-.06,9.08,3.42,9.18,1.8-22.54-9.36-28.48-33.64-9.67-50.67,1-.91,5-2.91,5.41-3.77.58-1.23-.05-2.84.33-3.94,5.43-15.88,22.25-23.63,37.55-15.91,5.57-20.3,26.61-34.44,47.23-26.24,2.85,1.13,5.56,3.56,5.9,3.61,1.28.17,5.53-3.91,11.31-1.64Z"/>
  <polygon class="cls-5" points="1351.5 335.5 627.5 335.5 792.5 36.5 1516.5 36.5 1351.5 335.5"/>
  <circle class="cls-9" cx="87" cy="141" r="45"/>
  <path class="cls-8" d="M903.32,326.64c-21.95-19-44.9-36.91-66.65-56.22-18.92-16.81-37.34-34.27-55.59-51.8l-2.84,1.9c-8.32-11.6-25.75-24.86-35.06-36.64-8.91,7.81-17.09,16.4-25.58,24.64-34.73,33.7-68.77,68.26-108.66,96.02-1.08-.85-5.99-5.12-6.63-5.05-1.73.19-23.91,19.37-26.85,22.11,14.56-40.81,45.04-95,77.39-123.82,83.17-74.09,169-31.17,217,55.28,11.72,21.1,24.64,50.9,33.48,73.6Z"/>
  <g>
    <path class="cls-11" d="M608.94,304.53c13.42,10.64,25.65,23.03,39.8,32.85h-89.07c.37-1.06,13.74-13.88,15.79-15.79,2.93-2.74,25.12-21.92,26.85-22.11.64-.07,5.56,4.2,6.63,5.05Z"/>
    <path class="cls-11" d="M739.7,337.38c-26.74.01-53.49,0-80.23,0,5.28-4.08,35.06-32.99,37.59-33.48.58-.11,1.91-.09,2.53,0,2.59.37,35.25,29.03,40.11,33.48Z"/>
  </g>
  <g>
    <path class="cls-1" d="M778.24,220.51c.91,1.27,8.41,16.38,15.79,26.85,6.63,9.39,15.02,17.61,21.48,27.16-1.82,3.03-11.85-13.8-24.32-21.79-.84-.54-1.99.9-2.53.63-3.76-1.9-6.3-13.71-12-12-15.21-21-.58,4.95,4.11,12.32,10.74,16.89,24.81,32.02,34.11,49.91-16.2-13.57-13.94-7.9-18-9.79-5.47-2.55-7.09-16.29-12.63-4.42-8.85-6.59-9.74-11.47-11.37-13.27-.17-.19-1.41.63-2.84-.95-3.44-3.79-6.47-8.47-9.48-12.63-1.84-2.55-3.69-2.04-4.42-3.16-1.21-1.85-9.15-27.38-11.06-33.17-.9,7.35-3.49,3.61-3.79,3.79-.95.58-8.58,9.36-9.16,10.42-.51.94.84,2.97,0,4.42-6.42,11.07-12.2,20.86-13.9,10.74,1.64-1.63,11.24-29.32,9.79-30.01-6.84,6.74-14.38,22.93-20.53,20.53,2.55,10.54-9.07,12.34-9.79,12.95-5.52,4.64-10.04,10.74-15.16,15.79,1.18-5.49.79-8.13.95-8.53,2.07-5.31,26.72-35.61,27.16-37.9.57-2.97-1.36-3.36-1.26-4.42.24-2.47,14.94-13.95,8.21-15.48,8.49-8.24,16.68-16.83,25.58-24.64,9.31,11.78,26.74,25.04,35.06,36.64Z"/>
    <g>
      <path class="cls-3" d="M778.24,220.51l2.84-1.9c18.25,17.54,36.67,34.99,55.59,51.8,21.75,19.32,44.69,37.22,66.65,56.22,3.84,3.32,7.44,7.17,11.37,10.42-.48.63-6.81.28-8.21.32-1.68.05-3.37-.03-5.05,0-53.85.82-107.85-.02-161.72,0-4.87-4.45-37.53-33.11-40.11-33.48-.62-.09-1.95-.11-2.53,0-2.53.49-32.31,29.4-37.59,33.48h-10.74c-14.15-9.82-26.38-22.21-39.8-32.85,39.88-27.77,73.92-62.32,108.66-96.02,6.73,1.53-7.98,13.01-8.21,15.48-.1,1.06,1.84,1.45,1.26,4.42-.44,2.29-25.09,32.59-27.16,37.9-.16.4.24,3.04-.95,8.53,5.12-5.06,9.64-11.16,15.16-15.79.72-.61,12.34-2.41,9.79-12.95,6.15,2.4,13.69-13.8,20.53-20.53,1.45.68-8.15,28.37-9.79,30.01,1.7,10.12,7.48.33,13.9-10.74.84-1.45-.51-3.48,0-4.42.58-1.06,8.21-9.84,9.16-10.42.3-.18,2.89,3.56,3.79-3.79,1.91,5.78,9.84,31.31,11.06,33.17.73,1.11,2.58.61,4.42,3.16,3.01,4.16,6.03,8.84,9.48,12.63,1.43,1.58,2.67.76,2.84.95,1.63,1.8,2.52,6.68,11.37,13.27,5.55-11.87,7.17,1.87,12.63,4.42,4.07,1.9,1.8-3.78,18,9.79-9.3-17.89-23.38-33.02-34.11-49.91-4.68-7.37-19.31-33.32-4.11-12.32,5.7-1.71,8.25,10.1,12,12,.54.27,1.69-1.17,2.53-.63,12.48,7.99,22.5,24.82,24.32,21.79-6.46-9.55-14.85-17.77-21.48-27.16-7.39-10.47-14.89-25.58-15.79-26.85Z"/>
      <path class="cls-1" d="M710.96,253.36l5.37,5.37q-11.84,11.84-23.69,23.69c-2.49-1.62,16.76-26.58,18.32-29.06Z"/>
    </g>
  </g>
  <path class="cls-6" d="M1065.32,88.16l52.65,58.48-24.32,74.84-76.97,16.35-52.65-58.48,24.32-74.84,76.97-16.35M1068.54,78.28l-87.14,18.51-27.54,84.72,59.6,66.21,87.14-18.51,27.54-84.72-59.6-66.21h0Z"/>
  <path class="cls-14" d="M1075.32,88.16l52.65,58.48-24.32,74.84-76.97,16.35-52.65-58.48,24.32-74.84,76.97-16.35M1078.54,78.28l-87.14,18.51-27.54,84.72,59.6,66.21,87.14-18.51,27.54-84.72-59.6-66.21h0Z"/>
  <path class="cls-13" d="M1085.32,88.16l52.65,58.48-24.32,74.84-76.97,16.35-52.65-58.48,24.32-74.84,76.97-16.35M1088.54,78.28l-87.14,18.51-27.54,84.72,59.6,66.21,87.14-18.51,27.54-84.72-59.6-66.21h0Z"/>
  <path class="cls-12" d="M441.9,67.23c-5.79-2.27-10.03,1.81-11.31,1.64-.34-.05-3.06-2.48-5.9-3.61-20.62-8.2-41.65,5.93-47.23,26.24-15.3-7.72-32.12.03-37.55,15.91-.37,1.09.26,2.7-.33,3.94-.41.86-4.41,2.86-5.41,3.77-18.81,17.03-12.87,41.31,9.67,50.67-.1,1.61-7.39-1.86-9.18-1.8-.98-.44-1.93-.98-2.95-1.31-12.61-9.74-18.75-22.45-12.79-38.21,5.53-14.64,17.07-15.64,17.71-16.73.18-.3.36-4.85.66-5.9,4.79-16.82,22.03-23.06,37.55-16.23,5.11-19.98,26.1-31.57,45.91-27.88,5.04.94,16.94,6.43,21.15,9.51Z"/>
  <text class="cls-16" transform="translate(115.83 285.63) rotate(-3.41)"><tspan x="0" y="0">Hello, HTML.</tspan></text>
  <path class="cls-4" d="M1658.5,107.17c1.38,7.01,2.5,16.93,2.5,29.33s-1.12,22.32-2.5,29.33c-1.38-7.01-2.5-16.93-2.5-29.33s1.12-22.32,2.5-29.33M1658.5,88c-6.35,0-11.5,21.71-11.5,48.5s5.15,48.5,11.5,48.5,11.5-21.71,11.5-48.5-5.15-48.5-11.5-48.5h0Z"/>
  <path class="cls-4" d="M1720.5,107.17c1.38,7.01,2.5,16.93,2.5,29.33s-1.12,22.32-2.5,29.33c-1.38-7.01-2.5-16.93-2.5-29.33s1.12-22.32,2.5-29.33M1720.5,88c-6.35,0-11.5,21.71-11.5,48.5s5.15,48.5,11.5,48.5,11.5-21.71,11.5-48.5-5.15-48.5-11.5-48.5h0Z"/>
  <path class="cls-15" d="M1601,216.5h180c-11.12,38.85-45.07,66.53-84,69-43,2.73-83.46-25.85-96-69Z"/>
  <rect class="cls-19" x="1068" y="150" width="178" height="120"/>
  <rect class="cls-18" x="1078" y="154" width="178" height="120"/>
  <rect class="cls-17" x="1088" y="158" width="178" height="120"/>
</svg>