<?xml version="1.0" encoding="UTF-8"?>
<svg version="1.1" xmlns="http://www.w3.org/2000/svg" width="1014" height="1013">
<path d="M0 0 C334.62 0 669.24 0 1014 0 C1014 334.29 1014 668.58 1014 1013 C976.38 1013 938.76 1013 900 1013 C899.67 1002.77 899.34 992.54 899 982 C896.01726391 974.22890721 893.14484257 967.65290722 889 960.625 C888.0633388 958.93803246 887.13234835 957.24790396 886.20703125 955.5546875 C883.07880201 949.86806079 879.86134866 944.23358982 876.62353516 938.60876465 C875.31413393 936.31920129 874.02985782 934.01711257 872.75 931.7109375 C872.15723267 930.69599716 872.15723267 930.69599716 871.55249023 929.66055298 C869.00159302 925.00793511 868.61580637 922.10677683 870 917 C871.26831055 914.12353516 871.26831055 914.12353516 872.88671875 911.2890625 C873.4892749 910.22091309 874.09183105 909.15276367 874.71264648 908.05224609 C875.69019897 906.35575928 875.69019897 906.35575928 876.6875 904.625 C877.35946909 903.43514913 878.0301043 902.24454404 878.69946289 901.05322266 C881.78538004 895.57433341 884.91801405 890.12416161 888.10282898 884.70217896 C889.09445033 883.00984592 890.07720487 881.31232744 891.05981445 879.61474609 C892.28344158 877.50350802 893.52344761 875.40165221 894.78198242 873.31103516 C898.13196719 867.51307805 900.66196773 862.73317174 899 856 C897.32827955 851.76790171 895.20385733 847.85104641 893 843.875 C892.05623365 842.10776942 891.1125064 840.34051729 890.17042542 838.5723877 C888.81719738 836.04123422 887.44854637 833.51854091 886.08074951 830.99523926 C883.07438342 825.44499881 880.09222378 819.88274447 877.1496582 814.29840088 C876.07861024 812.28035457 874.98617057 810.27493747 873.89257812 808.26904297 C873.23065254 807.01849493 872.56979195 805.76738242 871.91015625 804.515625 C871.32371338 803.42540039 870.73727051 802.33517578 870.13305664 801.21191406 C868.47248193 796.50462663 869.12956202 792.99710293 871.10058594 788.47485352 C871.55723633 787.70069092 872.01388672 786.92652832 872.484375 786.12890625 C873.0014502 785.23606934 873.51852539 784.34323242 874.05126953 783.42333984 C874.61185059 782.4792627 875.17243164 781.53518555 875.75 780.5625 C876.93177558 778.52594983 878.11139255 776.48814582 879.2890625 774.44921875 C879.89911133 773.39653809 880.50916016 772.34385742 881.13769531 771.25927734 C884.80450919 764.84187236 888.27614559 758.31817625 891.77246094 751.80688477 C892.28325195 750.85740967 892.79404297 749.90793457 893.3203125 748.9296875 C893.98957764 747.68034424 893.98957764 747.68034424 894.67236328 746.40576172 C895.62009512 744.68841167 896.63757909 743.008811 897.69873047 741.35913086 C899.30160233 739.04413884 899.30160233 739.04413884 898.5 736.32421875 C896.4413319 731.76191001 894.26320415 727.27668963 892 722.8125 C891.51305664 721.84505859 891.02611328 720.87761719 890.52441406 719.88085938 C887.32801747 713.55426988 884.06214298 707.26663369 880.75 701 C880.13838013 699.83815186 880.13838013 699.83815186 879.5144043 698.65283203 C877.62408858 695.06356684 875.72042024 691.48320341 873.78515625 687.91796875 C873.12691868 686.67484189 872.46932453 685.43137404 871.8125 684.1875 C871.24144531 683.12917969 870.67039062 682.07085938 870.08203125 680.98046875 C868.52293718 676.68592443 869.32214794 673.53413935 871.14819336 669.40136719 C871.62393799 668.54188477 872.09968262 667.68240234 872.58984375 666.796875 C873.38829712 665.33930786 873.38829712 665.33930786 874.20288086 663.85229492 C874.77530518 662.8285376 875.34772949 661.80478027 875.9375 660.75 C876.52217041 659.68821533 877.10684082 658.62643066 877.70922852 657.5324707 C879.46418314 654.35010513 881.23083266 651.17448132 883 648 C883.95882199 646.26980196 884.91719638 644.53935575 885.875 642.80859375 C886.72915402 641.26822215 887.58332008 639.72785723 888.4375 638.1875 C888.84073486 637.45837402 889.24396973 636.72924805 889.65942383 635.97802734 C891.38363588 632.86848647 893.12817126 629.78501133 894.94921875 626.73046875 C895.77873047 625.31701172 895.77873047 625.31701172 896.625 623.875 C897.09164062 623.10929688 897.55828125 622.34359375 898.0390625 621.5546875 C899.72943537 617.06076937 899.7393581 613.02342537 898.10580444 608.55282593 C896.80154778 605.77493075 895.40497991 603.06725262 893.9609375 600.359375 C893.44246246 599.35594055 892.92398743 598.3525061 892.38980103 597.31866455 C890.73332652 594.12097231 889.05479799 590.93549117 887.375 587.75 C886.26802104 585.62448376 885.16253712 583.49818819 884.05859375 581.37109375 C878.52939418 570.67276572 878.52939418 570.67276572 872.85253906 560.05273438 C872.2953418 559.00923828 871.73814453 557.96574219 871.1640625 556.890625 C870.70725098 556.06079102 870.25043945 555.23095703 869.77978516 554.37597656 C868.3884629 550.13666906 869.55358845 546.96624813 871.37597656 543.02172852 C871.95831055 541.98459717 872.54064453 540.94746582 873.140625 539.87890625 C873.61904594 539.01894798 873.61904594 539.01894798 874.10713196 538.14161682 C874.79187278 536.91388506 875.48074022 535.68844723 876.17337036 534.46514893 C877.26149199 532.54219104 878.33695286 530.61260586 879.40991211 528.68115234 C882.86214775 522.4836245 886.37739506 516.32912853 889.98828125 510.22265625 C890.59317383 509.18874756 891.19806641 508.15483887 891.82128906 507.08959961 C892.9562043 505.15728388 894.10720851 503.23430072 895.27636719 501.32250977 C895.78458008 500.45553467 896.29279297 499.58855957 896.81640625 498.6953125 C897.26443604 497.95297363 897.71246582 497.21063477 898.17407227 496.44580078 C899.745146 491.7934163 898.42962304 487.62793728 896.40869141 483.32568359 C895.73358487 482.01110205 895.04727495 480.70223106 894.3515625 479.3984375 C893.98266403 478.68763031 893.61376556 477.97682312 893.23368835 477.24447632 C892.44620238 475.73067394 891.65395837 474.2193386 890.85733032 472.71032715 C889.61606691 470.35807135 888.38889367 467.99892321 887.16479492 465.63769531 C883.61845484 458.81226026 880.02888657 452.01432447 876.32421875 445.2734375 C875.80585449 444.32033691 875.28749023 443.36723633 874.75341797 442.38525391 C873.82261399 440.68293297 872.87602963 438.98910339 871.91064453 437.30615234 C870.07100916 433.94039796 869.03386773 431.59127416 868.8125 427.7265625 C870.66053563 421.92713489 873.65730849 416.88372524 876.6875 411.625 C877.35946909 410.43514913 878.0301043 409.24454404 878.69946289 408.05322266 C881.78538004 402.57433341 884.91801405 397.12416161 888.10282898 391.70217896 C889.09445033 390.00984592 890.07720487 388.31232744 891.05981445 386.61474609 C892.28344158 384.50350802 893.52344761 382.40165221 894.78198242 380.31103516 C898.13196719 374.51307805 900.66196773 369.73317174 899 363 C897.32827955 358.76790171 895.20385733 354.85104641 893 350.875 C892.05623365 349.10776942 891.1125064 347.34051729 890.17042542 345.5723877 C888.81719738 343.04123422 887.44854637 340.51854091 886.08074951 337.99523926 C883.07438342 332.44499881 880.09222378 326.88274447 877.1496582 321.29840088 C876.07861024 319.28035457 874.98617057 317.27493747 873.89257812 315.26904297 C873.23065254 314.01849493 872.56979195 312.76738242 871.91015625 311.515625 C871.32371338 310.42540039 870.73727051 309.33517578 870.13305664 308.21191406 C868.47248193 303.50462663 869.12956202 299.99710293 871.10058594 295.47485352 C871.55723633 294.70069092 872.01388672 293.92652832 872.484375 293.12890625 C873.0014502 292.23606934 873.51852539 291.34323242 874.05126953 290.42333984 C874.61185059 289.4792627 875.17243164 288.53518555 875.75 287.5625 C876.93177558 285.52594983 878.11139255 283.48814582 879.2890625 281.44921875 C879.89911133 280.39653809 880.50916016 279.34385742 881.13769531 278.25927734 C884.80450919 271.84187236 888.27614559 265.31817625 891.77246094 258.80688477 C892.28325195 257.85740967 892.79404297 256.90793457 893.3203125 255.9296875 C893.98957764 254.68034424 893.98957764 254.68034424 894.67236328 253.40576172 C895.60324783 251.71894002 896.59557507 250.06526811 897.63085938 248.44042969 C899.84089774 244.50113877 899.82557225 241.39928227 899 237 C897.225693 232.35939017 894.95030474 228.00728241 892.625 223.625 C891.98085489 222.37906409 891.33829045 221.13230977 890.69726562 219.88476562 C888.820296 216.24465733 886.91191502 212.6218744 885 209 C884.01765408 207.12269665 883.03582203 205.24512424 882.0546875 203.3671875 C877.5909006 194.84817472 877.5909006 194.84817472 873.01953125 186.38671875 C872.45621094 185.33097656 871.89289062 184.27523437 871.3125 183.1875 C870.83425781 182.31480469 870.35601563 181.44210938 869.86328125 180.54296875 C868.51253669 176.56407868 869.4436791 173.27344175 871.10058594 169.48071289 C871.78556152 168.23922485 871.78556152 168.23922485 872.484375 166.97265625 C873.0014502 166.02624268 873.51852539 165.0798291 874.05126953 164.10473633 C874.61185059 163.10079834 875.17243164 162.09686035 875.75 161.0625 C876.32476074 160.01795654 876.89952148 158.97341309 877.49169922 157.8972168 C879.31616347 154.59152151 881.15542247 151.29451027 883 148 C883.91023926 146.37288086 883.91023926 146.37288086 884.83886719 144.71289062 C894.29685107 127.83858155 894.29685107 127.83858155 899 120 C734.66 119.505 734.66 119.505 567 119 C567.33 119.66 567.66 120.32 568 121 C570.39609803 158.03871803 561.94306297 193.37756765 551.51513672 228.64648438 C533.86246382 288.6004755 546.03592073 352.35783929 575 407 C577.3758156 411.26153007 579.81972218 415.48175445 582.32006836 419.67138672 C584.52473822 423.37130493 586.57705377 426.91107405 588 431 C561.44364291 446.22132662 524.6076914 451.84855072 494.92578125 443.96484375 C477.87321361 439.09528052 460.83676302 430.69061399 451.265625 415.19140625 C447.44605412 408.26231293 445.04357991 401.37546335 443.1875 393.6875 C442.992771 392.8836084 442.79804199 392.0797168 442.59741211 391.25146484 C439.08642623 375.48526756 438.62795211 359.7094566 438.6875 343.625 C438.69023422 342.08564789 438.69023422 342.08564789 438.69302368 340.51519775 C438.74937488 321.53677379 439.78496824 302.84291179 442 284 C442.0825 283.28529541 442.165 282.57059082 442.25 281.83422852 C447.14308391 239.59844556 454.68675049 197.25299806 465 156 C466.32 143.79 467.64 131.58 469 119 C293.77 119.495 293.77 119.495 115 120 C130.85142649 151.07729198 130.85142649 151.07729198 147 182 C144.2862719 190.07160153 144.2862719 190.07160153 142.12890625 193.1640625 C139.59381468 196.98976139 137.33526266 200.92692267 135.15234375 204.9609375 C134.64387657 205.89933472 134.64387657 205.89933472 134.12513733 206.85668945 C133.42951801 208.14138103 132.73423343 209.4262539 132.03927612 210.71130371 C130.37881896 213.76882678 128.69058809 216.81063015 127 219.8515625 C126.67672226 220.43873047 126.35344452 221.02589844 126.02037048 221.63085938 C124.30926224 224.72281689 122.54485155 227.76427977 120.68359375 230.76855469 C120.30783203 231.38749603 119.93207031 232.00643738 119.54492188 232.64413452 C118.50053733 234.35752036 117.43642006 236.05883329 116.37109375 237.75927734 C114.67417166 241.77012916 114.92262157 243.81426514 116 248 C117.20223762 250.99570536 117.20223762 250.99570536 118.80859375 253.88671875 C119.38601318 254.98024658 119.96343262 256.07377441 120.55834961 257.20043945 C121.17846924 258.35116943 121.79858887 259.50189941 122.4375 260.6875 C123.40004235 262.50214314 124.35874875 264.31878062 125.31739807 266.13548279 C125.9597681 267.35207774 126.6033532 268.56803191 127.24815369 269.78334045 C130.48629852 275.89081961 133.65095565 282.03875546 136.60913086 288.28735352 C138.3661623 291.96629137 140.08178684 295.25537675 142.66015625 298.42578125 C145.21247832 301.9155171 147.16057855 304.62423462 147 309 C144.40729388 317.14912363 139.58446216 324.40567288 135.08496094 331.61523438 C131.84364724 336.87724528 128.87729732 342.28696196 125.875 347.6875 C124.83347362 349.5262968 123.78936716 351.36363557 122.7421875 353.19921875 C122.27651367 354.02728027 121.81083984 354.8553418 121.33105469 355.70849609 C120.48865259 357.15875032 119.60771504 358.58784842 118.67675781 359.98291016 C116.84772917 362.77840548 115.90686682 364.37224656 116.40625 367.73828125 C117.19515625 369.35283203 117.19515625 369.35283203 118 371 C118.37769531 371.79583496 118.75539063 372.59166992 119.14453125 373.41162109 C120.55937618 376.3566062 122.02424094 379.27258237 123.5 382.1875 C124.03391357 383.24960693 124.56782715 384.31171387 125.11791992 385.40600586 C128.79844668 392.70091594 132.55141726 399.95557548 136.4375 407.14331055 C137.19544923 408.5589802 137.93305865 409.985686 138.65234375 411.42138672 C139.71793806 413.46030104 140.88333835 415.44702589 142.08203125 417.41064453 C147.4631002 426.68999864 147.4631002 426.68999864 146.30102539 432.48657227 C144.59070853 436.11439776 142.58490036 439.41719333 140.375 442.75 C139.61620403 443.98789299 138.86360197 445.22960201 138.11694336 446.47485352 C136.56636915 449.04764851 134.98925065 451.60078983 133.38916016 454.14306641 C129.91030637 459.70715322 126.72310423 465.43226837 123.54595947 471.17224121 C122.58130409 472.90374763 121.59721949 474.62438389 120.61279297 476.34472656 C120.01998535 477.39499023 119.42717773 478.44525391 118.81640625 479.52734375 C118.03438843 480.90007446 118.03438843 480.90007446 117.23657227 482.30053711 C115.54337458 485.99682275 114.48156897 489.22126214 115.64575195 493.21557617 C116.00628662 493.90111572 116.36682129 494.58665527 116.73828125 495.29296875 C117.14103271 496.07784668 117.54378418 496.86272461 117.95874023 497.67138672 C118.40548096 498.5017041 118.85222168 499.33202148 119.3125 500.1875 C119.76890869 501.06680176 120.22531738 501.94610352 120.69555664 502.85205078 C122.11444047 505.57675608 123.55502379 508.28905802 125 511 C125.8368739 512.58674606 126.67285275 514.17396461 127.5078125 515.76171875 C128.72211867 518.06814594 129.93707995 520.37420522 131.1550293 522.67871094 C134.52935416 529.07244841 137.85125651 535.4916722 141.125 541.9375 C141.85384399 543.35071533 141.85384399 543.35071533 142.59741211 544.79248047 C143.04221924 545.67436035 143.48702637 546.55624023 143.9453125 547.46484375 C144.34250488 548.244646 144.73969727 549.02444824 145.14892578 549.82788086 C146 552 146 552 146 556 C144.8293457 558.65942383 144.8293457 558.65942383 143.17578125 561.70703125 C142.56508789 562.84060059 141.95439453 563.97416992 141.32519531 565.14208984 C140.65458812 566.36571956 139.98368311 567.5891861 139.3125 568.8125 C138.63197586 570.06694291 137.95196775 571.32166589 137.27246094 572.57666016 C132.32872896 581.68102787 127.26964256 590.72104971 122.1262207 599.71411133 C121.62566162 600.58962646 121.12510254 601.4651416 120.609375 602.3671875 C120.17592773 603.12112793 119.74248047 603.87506836 119.29589844 604.65185547 C118.65442871 605.81418701 118.65442871 605.81418701 118 607 C117.3704541 607.90371338 116.7409082 608.80742676 116.09228516 609.73852539 C114.88422133 613.34570569 114.97841223 613.80538556 116.41259766 617.11157227 C117.22164184 618.69277493 118.05744466 620.26046273 118.9140625 621.81640625 C119.35566208 622.6616687 119.79726166 623.50693115 120.25224304 624.37780762 C121.19940263 626.18307946 122.15749322 627.98265064 123.12539673 629.77688599 C124.62749032 632.56712593 126.09341192 635.37381033 127.55151367 638.18725586 C131.54535428 645.85633903 135.57526342 653.46406853 140.13671875 660.8125 C147.36710933 672.56852931 147.36710933 672.56852931 146.4296875 678.77734375 C144.99550994 682.3275974 142.88011405 685.33724967 140.68505859 688.45605469 C138.65343071 691.5232182 136.89028434 694.71081754 135.14453125 697.9453125 C134.8060466 698.57189758 134.46756195 699.19848267 134.11882019 699.84405518 C133.42439707 701.13148776 132.73054868 702.4192305 132.03726196 703.70727539 C130.38154676 706.76841703 128.69178463 709.81025595 127 712.8515625 C126.51506828 713.73228424 126.51506828 713.73228424 126.02033997 714.63079834 C124.30930959 717.72281693 122.54485918 720.76426746 120.68359375 723.76855469 C120.30783203 724.38749603 119.93207031 725.00643738 119.54492188 725.64413452 C118.50053733 727.35752036 117.43642006 729.05883329 116.37109375 730.75927734 C114.67898044 734.75876311 114.9355083 736.82638465 116 741 C117.08766856 743.78131941 117.08766856 743.78131941 118.5625 746.4296875 C119.10503418 747.45602295 119.64756836 748.4823584 120.20654297 749.53979492 C120.79838379 750.6404126 121.39022461 751.74103027 122 752.875 C122.60344238 754.03813721 123.20688477 755.20127441 123.82861328 756.3996582 C126.9865383 762.48099681 130.24662124 768.47665811 133.72381592 774.38208008 C135.40524457 777.25703907 137.03599845 780.15920935 138.66210938 783.06573486 C139.46324389 784.46719618 140.28759384 785.85566791 141.13574219 787.22918701 C147.60050493 797.72257098 147.60050493 797.72257098 146.62875366 803.02618408 C145.10059212 807.40249386 142.74449143 811.23884726 140.21899414 815.10440063 C138.38832471 817.95118692 136.84481056 820.91876515 135.25390625 823.90625 C134.0264616 826.10585693 132.79597341 828.30376814 131.5625 830.5 C130.91094964 831.67126665 130.2599147 832.84282015 129.609375 834.01464844 C126.80116079 839.06370779 123.96985111 844.09298335 120.99609375 849.046875 C120.35208618 850.13452148 120.35208618 850.13452148 119.69506836 851.24414062 C118.92969804 852.52877444 118.14920956 853.80459291 117.34985352 855.06835938 C114.74031171 859.47057599 114.9856549 862.08314881 116 867 C117.2058135 870.10633415 117.2058135 870.10633415 118.80859375 873.140625 C119.38601318 874.28442627 119.96343262 875.42822754 120.55834961 876.60668945 C121.1844806 877.82125649 121.81086943 879.03569064 122.4375 880.25 C123.07702863 881.50766266 123.71577539 882.7657232 124.35375977 884.02416992 C127.58207651 890.37422035 130.86427553 896.69603002 134.20947266 902.98535156 C135.02232308 904.52572736 135.82173791 906.07327502 136.60693359 907.62792969 C138.41223648 911.1826293 140.23349549 914.40046909 142.6953125 917.54296875 C145.35637481 921.21442268 147.22926341 924.35006783 147 929 C144.45466513 936.71646829 139.8375534 943.57831106 135.49980164 950.3971405 C131.4309497 956.80792772 127.80540118 963.4425137 124.18508911 970.1137085 C122.49497309 973.22069612 120.78123848 976.31459637 119.0703125 979.41015625 C112.00555148 992.21765866 114.88181325 990.07285552 114 1013 C76.38 1013 38.76 1013 0 1013 C0 678.71 0 344.42 0 0 Z M932 941 C932 950.9 932 960.8 932 971 C949.16 971 966.32 971 984 971 C984 961.1 984 951.2 984 941 C966.84 941 949.68 941 932 941 Z " fill="#000000" transform="translate(0,0)"/>
</svg>
