<?xml version="1.1" encoding="UTF-8"?>
<svg id="Layer_1" data-name="Layer 1" xmlns="http://www.w3.org/2000/svg" viewBox="0 0 400 300">
  <defs>
    <style>
      .cls-1 {
        fill: #010101;
        stroke-width: 0px;
      }

      .cls-2 {
        fill: #fff;
      }

      .cls-2, .cls-3 {
        stroke: #231f20;
        stroke-miterlimit: 10;
      }

      .cls-3 {
        fill: #fbee2f;
      }
    </style>
  </defs>
  <path class="cls-2" d="M173.4,5.8c-19.83-3.79-91.55-17.48-126.6,22.9-3.39,3.91-23.36,26.91-16.16,45.45,12.27,31.61,87.22,8.44,123.91,54.88,14.96,18.94,7.23,28.78,22.9,42.76,34.39,30.7,111.82,19.15,128.96-15.49,11.84-23.93-11.55-45.84,3.03-65.99,16.05-22.19,53.28-7.92,63.3-27.27,8.04-15.53-4.85-46.16-26.26-56.23-29.27-13.77-51.31,21.75-104.71,19.53-30.14-1.25-27.57-12.75-68.35-20.54Z"/>
  <circle class="cls-3" r="6">
    <animateMotion dur="20s" repeatCount="indefinite" path="M173.4,5.8c-19.83-3.79-91.55-17.48-126.6,22.9-3.39,3.91-23.36,26.91-16.16,45.45,12.27,31.61,87.22,8.44,123.91,54.88,14.96,18.94,7.23,28.78,22.9,42.76,34.39,30.7,111.82,19.15,128.96-15.49,11.84-23.93-11.55-45.84,3.03-65.99,16.05-22.19,53.28-7.92,63.3-27.27,8.04-15.53-4.85-46.16-26.26-56.23-29.27-13.77-51.31,21.75-104.71,19.53-30.14-1.25-27.57-12.75-68.35-20.54Z"/>
  </circle>
  <path class="cls-1" d="M0,187.88h88.48v88.39h-9.95c-.03-.89-.06-1.79-.09-2.71-.26-.68-.51-1.25-.87-1.87-.08-.15-.16-.29-.24-.44-.27-.5-.55-.99-.84-1.48-.11-.2-.23-.4-.34-.6q-.05-.09-.1-.18c-.22-.41-.26-.66-.14-1.1q.11-.25.25-.5c.05-.09.11-.19.16-.28q.09-.15.17-.3c.06-.1.12-.21.18-.31.27-.48.54-.95.82-1.43.09-.15.17-.3.26-.44.11-.18.21-.37.32-.55.29-.51.51-.92.37-1.51-.15-.37-.33-.71-.52-1.06-.08-.15-.16-.31-.25-.46-.12-.22-.24-.44-.36-.66-.26-.48-.52-.97-.78-1.46-.09-.18-.19-.35-.28-.53-.06-.11-.12-.22-.17-.33-.05-.1-.1-.19-.16-.29-.14-.41-.09-.72.08-1.11.04-.07.08-.14.12-.2.05-.08.09-.16.14-.24.05-.08.1-.16.15-.25.1-.18.21-.36.31-.53.05-.09.11-.18.16-.28.32-.56.62-1.13.93-1.7.04-.08.09-.17.14-.25q.06-.11.12-.22c.08-.15.17-.3.26-.44q.14-.2.07-.44c-.18-.4-.37-.79-.57-1.18-.04-.08-.08-.17-.13-.26-.28-.55-.56-1.1-.85-1.65q-.05-.1-.11-.2c-.16-.31-.33-.63-.5-.94-.06-.11-.11-.22-.17-.33-.05-.09-.1-.18-.15-.28-.14-.37-.07-.65.09-1.01.04-.07.08-.15.13-.23q.07-.13.14-.26c.05-.09.1-.18.15-.27.05-.09.1-.19.15-.28.15-.28.31-.55.46-.83.08-.15.17-.3.25-.45.07-.13.15-.27.22-.4.04-.06.07-.13.11-.19.15-.27.3-.54.46-.81q.07-.12.15-.25c.04-.07.08-.13.12-.2.15-.39.15-.74,0-1.13-.11-.24-.24-.48-.36-.71-.05-.09-.09-.18-.14-.27-.14-.28-.29-.56-.44-.83-.1-.19-.19-.37-.29-.56q-.48-.93-.98-1.86c-.05-.09-.1-.18-.15-.28-.04-.07-.08-.14-.12-.22-.12-.37-.02-.65.14-.99.05-.09.1-.18.15-.27q.04-.08.08-.15c.06-.11.12-.21.18-.32.09-.17.19-.34.28-.5.3-.54.61-1.08.92-1.61.05-.09.11-.18.16-.27.1-.17.2-.34.3-.5.04-.08.09-.15.13-.23.04-.06.08-.13.12-.2.14-.41.02-.77-.15-1.14-.06-.11-.12-.23-.18-.34-.03-.06-.06-.12-.1-.19-.07-.13-.14-.26-.21-.4-.11-.21-.22-.41-.32-.62-.31-.6-.62-1.19-.95-1.78-.05-.08-.09-.17-.14-.25-.08-.15-.16-.3-.25-.44-.16-.29-.25-.5-.27-.84.16-.51.42-.95.69-1.41.06-.1.12-.21.18-.31.27-.48.54-.95.82-1.43.09-.15.17-.3.26-.44.11-.18.21-.37.32-.55.29-.51.51-.92.37-1.51-.15-.37-.33-.71-.52-1.06-.08-.15-.16-.31-.25-.46-.12-.22-.24-.44-.36-.66-.26-.48-.52-.97-.78-1.46-.09-.18-.19-.35-.28-.53-.06-.11-.12-.22-.17-.33-.05-.1-.1-.19-.16-.29-.14-.41-.09-.72.08-1.11.04-.07.08-.14.12-.2.05-.08.09-.16.14-.24.05-.08.1-.16.15-.25.1-.18.21-.36.31-.53.05-.09.11-.18.16-.28.32-.56.62-1.13.93-1.7.04-.08.09-.17.14-.25q.06-.11.12-.22c.08-.15.17-.29.26-.43.19-.34.19-.61.12-1-.15-.4-.35-.78-.56-1.17-.06-.11-.11-.22-.17-.33-.16-.32-.33-.63-.5-.95-.09-.16-.17-.33-.26-.49q-.39-.74-.79-1.48c-.05-.09-.1-.18-.15-.28-.04-.08-.08-.15-.13-.23-.12-.35-.04-.63.11-.97q.06-.11.12-.22c.05-.08.09-.17.14-.25.05-.09.1-.18.15-.27.05-.09.1-.18.15-.28.16-.29.32-.58.48-.86q.08-.14.16-.29.83-1.47,1.24-2.16-14.34-.04-28.97-.09c.03.06.06.12.09.17.21,3.23-.53,6.32-1.44,9.39-1.54,5.23-.48,10.8,2.05,15.56.21.37.42.74.64,1.11.19.32.37.63.5.99-2.32,1.33-5.53,1.82-8.12,1.13-1.49-.42-2.97-1.16-3.81-2.51-.33-.6-.54-1.21-.7-1.88-.02-.07-.03-.14-.05-.21-.31-1.38-.35-2.75-.34-4.16q0-.13,0-.27c0-1.66.1-3.29.29-4.93,0-.06.01-.12.02-.19.43-3.69,1.09-7.38,1.99-10.98.12-1.07.23-2.13.35-3.23q-15.29.04-30.89.09,1.38,2.71,2.79,5.41-.24.7-.43.97c-.22.33-.42.68-.61,1.03q-.04.08-.09.17c-.06.11-.12.22-.18.34-.14.27-.29.53-.44.8-.03.05-.06.1-.09.16-.15.27-.3.54-.47.8-.03.05-.07.11-.1.16-.09.15-.18.3-.28.45-.15.35-.13.53-.03.89q.1.26.25.51c.05.1.1.19.15.29.05.1.11.2.16.3.08.16.17.32.25.48.06.11.11.21.17.32.28.53.56,1.07.82,1.61.15.32.3.61.53.88.22.3.39.54.38.92-.23.71-.65,1.34-1.04,1.97-.28.46-.54.93-.8,1.4-.09.16-.18.32-.27.48-.04.07-.08.14-.12.22-.07.13-.15.25-.23.37-.16.24-.24.38-.2.68q.07.14.14.28c.03.07.07.14.1.21.12.26.25.51.38.77.05.09.09.19.14.28.32.64.65,1.27.99,1.9.07.12.13.25.19.37.09.18.19.35.3.52q.47.81.37,1.32c-.15.32-.32.6-.52.9-.07.11-.13.22-.2.33-.14.22-.27.45-.41.67-.3.49-.58.99-.86,1.49-.08.15-.17.3-.26.45-.05.09-.1.18-.16.28q-.07.12-.14.24c-.15.32-.24.6-.14.95.03.06.06.12.1.18.04.07.07.14.11.21.04.07.08.14.12.22.04.08.08.15.12.23.12.24.25.47.38.71.07.14.15.28.22.42.11.2.21.4.32.6.29.56.58,1.12.87,1.68q.06.12.13.25c.04.08.08.15.12.23.03.07.07.14.11.21q.07.19.07.54t-.25.5c-.05.1-.11.2-.16.3-.06.11-.12.21-.18.32-.06.11-.12.22-.18.33-.43.79-.87,1.58-1.32,2.37-.04.08-.09.15-.13.23-.04.07-.08.13-.11.2q-.06.1-.11.2c-.05.08-.11.16-.17.24-.11.31-.1.35.03.64.07.14.14.27.22.41.04.07.08.15.12.22.08.16.17.31.25.47.13.24.26.49.39.73.35.67.7,1.33,1.1,1.97q.63,1.03.55,1.57c-.13.31-.31.57-.5.84-.18.27-.33.55-.48.83-.03.05-.06.11-.09.17-.06.11-.12.22-.18.34-.14.27-.29.53-.44.8q-.04.08-.09.16c-.15.27-.3.54-.47.8-.03.05-.07.11-.1.16-.09.15-.18.3-.28.45-.15.35-.13.53-.03.89q.09.24.22.47c.05.09.09.18.14.27.05.1.1.19.16.29.05.1.11.2.16.31.28.53.56,1.05.86,1.57.15.25.29.5.43.76.07.12.14.24.22.36q.56.92.48,1.38c-.13.38-.34.72-.56,1.05-.16.25-.29.51-.43.77-.11.19-.21.38-.32.58-.06.1-.11.2-.17.31-.25.44-.49.88-.75,1.31q-.06.09-.11.19c-.07.11-.13.22-.2.33-.23.38-.21.61-.12,1.04q.11.27.25.54c.05.1.1.2.15.3.05.11.11.21.16.32.06.11.11.22.17.33.28.55.57,1.11.86,1.65.07.13.14.27.21.41.16.31.32.59.53.87.23.32.4.59.38,1-.22.67-.62,1.27-1,1.87-.36.56-.67,1.14-.99,1.72-.15.27-.3.54-.45.81-.62,1.12-.37.93-.44,2.93H0v-88.39ZM81.33,269.99v2.62h4.54v-2.62h-4.54Z"/>
</svg>